<?xml version="1.0" encoding="UTF-8" standalone="no"?>
<!-- Created with Inkscape (http://www.inkscape.org/) -->

<svg
   xmlns:dc="http://purl.org/dc/elements/1.1/"
   xmlns:cc="http://creativecommons.org/ns#"
   xmlns:rdf="http://www.w3.org/1999/02/22-rdf-syntax-ns#"
   xmlns:svg="http://www.w3.org/2000/svg"
   xmlns="http://www.w3.org/2000/svg"
   xmlns:sodipodi="http://sodipodi.sourceforge.net/DTD/sodipodi-0.dtd"
   xmlns:inkscape="http://www.inkscape.org/namespaces/inkscape"
   version="1.1"
   id="svg2"
   xml:space="preserve"
   width="12.223371"
   height="18.882402"
   viewBox="0 0 12.223371 18.882402"
   sodipodi:docname="cbs_logo_tiny_grijs.svg"
   inkscape:version="0.92.3 (2405546, 2018-03-11)"
   inkscape:export-filename="/home/eelco/PycharmProjects/CBS/cbs_utils/src/cbs_utils/logos/cbs_logo_tiny_grijs.png"
   inkscape:export-xdpi="502.64368"
   inkscape:export-ydpi="502.64368"><metadata
     id="metadata8"><rdf:RDF><cc:Work
         rdf:about=""><dc:format>image/svg+xml</dc:format><dc:type
           rdf:resource="http://purl.org/dc/dcmitype/StillImage" /><dc:title /></cc:Work></rdf:RDF></metadata><defs
     id="defs6"><clipPath
       clipPathUnits="userSpaceOnUse"
       id="clipPath22"><path
         d="M 0,0 H 482 V 147 H 0 Z"
         id="path20"
         inkscape:connector-curvature="0" /></clipPath></defs><sodipodi:namedview
     pagecolor="#ffffff"
     bordercolor="#666666"
     borderopacity="1"
     objecttolerance="10"
     gridtolerance="10"
     guidetolerance="10"
     inkscape:pageopacity="0"
     inkscape:pageshadow="2"
     inkscape:window-width="955"
     inkscape:window-height="921"
     id="namedview4"
     showgrid="false"
     inkscape:zoom="31.103451"
     inkscape:cx="1.012663"
     inkscape:cy="9.0920494"
     inkscape:window-x="480"
     inkscape:window-y="77"
     inkscape:window-maximized="0"
     inkscape:current-layer="g14" /><g
     id="g10"
     inkscape:groupmode="layer"
     inkscape:label="cbs_logo"
     transform="matrix(1.3333333,0,0,-1.3333333,0,18.883748)"><g
       id="g12" /><g
       id="g14"><g
         id="g18"
         transform="matrix(0.09680702,0,0,0.09680702,0,-0.06782079)"
         style="fill:#666666;fill-opacity:1" /><path
         d="M 4.0534066,11.966841 H 0.48403509 C 0.21665411,11.966841 0,11.750186 0,11.482805 V 7.5500203 H 4.0534066 V 9.3784144 H 1.8268452 V 10.139995 H 4.0534066 Z M 3.520968,11.434402 V 10.672434 H 1.2944066 V 8.8459758 H 3.520968 V 8.0824589 H 0.5324386 V 11.434402 H 3.520968"
         style="fill:#666666;fill-opacity:1;fill-rule:nonzero;stroke:none;stroke-width:0.09680702"
         id="path84"
         inkscape:connector-curvature="0" /><path
         d="M 6.5685498,9.3810282 V 10.143093 H 7.3346805 V 9.3810282 Z M 6.086354,14.162811 H 4.7447056 V 7.5507947 h 4.4228222 v 3.9323983 c 0,0.267381 -0.2166541,0.484035 -0.4840351,0.484035 H 6.5703891 V 13.6538 c 0,0.267381 -0.2166541,0.509011 -0.4840351,0.509011 z M 6.0361112,8.8485896 H 7.8671191 V 10.675532 H 6.0361112 V 8.8485896 m 0.00184,4.7817824 v -2.195583 h 2.597138 V 8.0832333 h -3.357945 v 5.5471387 h 0.7608063"
         style="fill:#666666;fill-opacity:1;fill-rule:nonzero;stroke:none;stroke-width:0.09680702"
         id="path86"
         inkscape:connector-curvature="0" /><path
         d="M 9.1611385,6.8614319 H 7.7445614e-4 L 0.00222656,2.5187659 7.3395209,2.517217 V 1.8294031 H 0.00222656 V 0.48504409 c 0,-0.26738098 0.21675091,-0.48403509 0.48403509,-0.48403509 H 8.6804917 c 0.267381,0 0.4840351,0.21665411 0.4840351,0.48403509 V 4.3463856 H 1.8317824 V 5.0240347 H 9.1611385 Z M 8.6286999,6.3289933 v -0.77252 H 1.2993438 V 3.813947 H 8.6320882 V 0.5334476 H 0.53466516 V 1.2969645 H 7.8719595 V 3.0496556 H 7.3395209 l -6.80514616,0.00155 -7.7446e-4,3.2777888 H 8.6286999"
         style="fill:#666666;fill-opacity:1;fill-rule:nonzero;stroke:none;stroke-width:0.09680702"
         id="path88"
         inkscape:connector-curvature="0" /></g><path
       style="fill:none;stroke:#000000;stroke-width:2.06088972;stroke-miterlimit:4;stroke-dasharray:none;stroke-opacity:1"
       d=""
       id="path4604"
       inkscape:connector-curvature="0"
       transform="matrix(0.75000002,0,0,-0.75000002,0,146.29002)" /></g></svg>