<?xml version="1.0" encoding="UTF-8" standalone="no"?>
<!-- Created with Inkscape (http://www.inkscape.org/) -->

<svg
   xmlns:dc="http://purl.org/dc/elements/1.1/"
   xmlns:cc="http://creativecommons.org/ns#"
   xmlns:rdf="http://www.w3.org/1999/02/22-rdf-syntax-ns#"
   xmlns:svg="http://www.w3.org/2000/svg"
   xmlns="http://www.w3.org/2000/svg"
   xmlns:sodipodi="http://sodipodi.sourceforge.net/DTD/sodipodi-0.dtd"
   xmlns:inkscape="http://www.inkscape.org/namespaces/inkscape"
   version="1.1"
   id="svg2"
   xml:space="preserve"
   width="126.26533"
   height="195.052"
   viewBox="0 0 126.26533 195.052"
   sodipodi:docname="cbs_logo_grijs.svg"
   inkscape:export-filename="/home/eelco/PycharmProjects/CBS/cbs_utils/src/cbs_utils/logos/cbs_logo_grijs.png"
   inkscape:export-xdpi="96"
   inkscape:export-ydpi="96"
   inkscape:version="0.92.3 (2405546, 2018-03-11)"><metadata
     id="metadata8"><rdf:RDF><cc:Work
         rdf:about=""><dc:format>image/svg+xml</dc:format><dc:type
           rdf:resource="http://purl.org/dc/dcmitype/StillImage" /><dc:title></dc:title></cc:Work></rdf:RDF></metadata><defs
     id="defs6"><clipPath
       clipPathUnits="userSpaceOnUse"
       id="clipPath22"><path
         d="M 0,0 H 482 V 147 H 0 Z"
         id="path20"
         inkscape:connector-curvature="0" /></clipPath></defs><sodipodi:namedview
     pagecolor="#ffffff"
     bordercolor="#666666"
     borderopacity="1"
     objecttolerance="10"
     gridtolerance="10"
     guidetolerance="10"
     inkscape:pageopacity="0"
     inkscape:pageshadow="2"
     inkscape:window-width="1680"
     inkscape:window-height="998"
     id="namedview4"
     showgrid="false"
     inkscape:zoom="0.48599143"
     inkscape:cx="320.99332"
     inkscape:cy="262.13595"
     inkscape:window-x="0"
     inkscape:window-y="0"
     inkscape:window-maximized="1"
     inkscape:current-layer="g14" /><g
     id="g10"
     inkscape:groupmode="layer"
     inkscape:label="cbs_logo"
     transform="matrix(1.3333333,0,0,-1.3333333,0,195.05334)"><g
       id="g12" /><g
       id="g14"><g
         id="g18"
         transform="translate(0,-0.709991)" /><path
         d="M 41.871,123.60601 H 5 c -2.762,0 -5,-2.238 -5,-5 V 77.981009 h 41.871 v 18.887 h -23 v 7.867001 h 23 z m -5.5,-5.5 v -7.871 h -23 V 91.368009 h 23 v -7.887 H 5.5 v 34.625001 h 30.871"
         style="fill:#808080;fill-opacity:1;fill-rule:nonzero;stroke:none"
         id="path84"
         inkscape:connector-curvature="0" /><path
         d="m 67.852,96.895009 v 7.872001 h 7.914 V 96.895009 Z M 62.871,146.29001 H 49.012 V 77.989009 h 45.687 v 40.621001 c 0,2.762 -2.238,5 -5,5 H 67.871 v 17.422 c 0,2.762 -2.238,5.258 -5,5.258 z M 62.352,91.395009 H 81.266 V 110.26701 H 62.352 V 91.395009 m 0.019,49.395001 v -22.68 H 89.199 V 83.489009 H 54.512 v 57.301001 h 7.859"
         style="fill:#808080;fill-opacity:1;fill-rule:nonzero;stroke:none"
         id="path86"
         inkscape:connector-curvature="0" /><path
         d="M 94.633,70.868009 H 0.008 l 0.015,-44.859 75.793,-0.016 v -7.105 H 0.023 v -13.887 c 0,-2.762 2.239,-5 5,-5 h 84.645 c 2.762,0 5,2.238 5,5 v 39.887 H 18.922 v 7 h 75.711 z m -5.5,-5.5 v -7.98 H 13.422 v -18 h 75.746 v -33.887 H 5.523 v 7.887 h 75.793 v 18.105 h -5.5 l -70.296,0.016 -0.008,33.859 h 83.621"
         style="fill:#808080;fill-opacity:1;fill-rule:nonzero;stroke:none"
         id="path88"
         inkscape:connector-curvature="0" /></g><path
       style="fill:none;stroke:#000000;stroke-width:2.06088972;stroke-miterlimit:4;stroke-dasharray:none;stroke-opacity:1"
       d=""
       id="path4604"
       inkscape:connector-curvature="0"
       transform="matrix(0.75000002,0,0,-0.75000002,0,146.29002)" /></g></svg>