<?xml version="1.0" encoding="UTF-8" standalone="no"?>
<!-- Created with Inkscape (http://www.inkscape.org/) -->

<svg
   xmlns:dc="http://purl.org/dc/elements/1.1/"
   xmlns:cc="http://creativecommons.org/ns#"
   xmlns:rdf="http://www.w3.org/1999/02/22-rdf-syntax-ns#"
   xmlns:svg="http://www.w3.org/2000/svg"
   xmlns="http://www.w3.org/2000/svg"
   xmlns:sodipodi="http://sodipodi.sourceforge.net/DTD/sodipodi-0.dtd"
   xmlns:inkscape="http://www.inkscape.org/namespaces/inkscape"
   version="1.1"
   id="svg2"
   xml:space="preserve"
   width="641.98663"
   height="195.05334"
   viewBox="0 0 641.98663 195.05334"
   sodipodi:docname="cbs_logo_white_chars.svg"
   inkscape:version="0.92.4 (33fec40, 2019-01-16)"><metadata
     id="metadata8"><rdf:RDF><cc:Work
         rdf:about=""><dc:format>image/svg+xml</dc:format><dc:type
           rdf:resource="http://purl.org/dc/dcmitype/StillImage" /><dc:title></dc:title></cc:Work></rdf:RDF></metadata><defs
     id="defs6"><clipPath
       clipPathUnits="userSpaceOnUse"
       id="clipPath22"><path
         d="M 0,0 H 482 V 147 H 0 Z"
         id="path20"
         inkscape:connector-curvature="0" /></clipPath></defs><sodipodi:namedview
     pagecolor="#ffffff"
     bordercolor="#666666"
     borderopacity="1"
     objecttolerance="10"
     gridtolerance="10"
     guidetolerance="10"
     inkscape:pageopacity="0"
     inkscape:pageshadow="2"
     inkscape:window-width="1920"
     inkscape:window-height="1056"
     id="namedview4"
     showgrid="false"
     inkscape:zoom="1.4054315"
     inkscape:cx="320.99332"
     inkscape:cy="97.526672"
     inkscape:window-x="0"
     inkscape:window-y="0"
     inkscape:window-maximized="1"
     inkscape:current-layer="g10" /><g
     id="g10"
     inkscape:groupmode="layer"
     inkscape:label="cbs_logo"
     transform="matrix(1.3333333,0,0,-1.3333333,0,195.05335)"><g
       id="g12" /><path
       inkscape:connector-curvature="0"
       id="path24"
       style="fill:#ffffff;fill-opacity:1;fill-rule:nonzero;stroke:none"
       d="m 137.562,54.122009 c -8.582,0 -11.574,5.41 -11.574,15.18 0,9.593 2.992,15.625 11.574,15.625 2.551,0 4.754,-0.309 5.942,-0.75 0.176,-0.086 0.308,-0.133 0.308,-0.395 l -0.222,-4.183 c 0,-0.129 -0.219,-0.305 -0.438,-0.219 -1.144,0.351 -2.992,0.617 -4.711,0.617 -5.058,0 -6.203,-2.641 -6.203,-10.738 0,-7.571 1.145,-10.211 6.203,-10.211 1.629,0 3.52,0.265 4.621,0.574 0.219,0.043 0.528,0.043 0.575,-0.219 l 0.304,-3.918 c 0.047,-0.265 -0.043,-0.484 -0.175,-0.527 -1.539,-0.484 -3.653,-0.836 -6.204,-0.836" /><path
       inkscape:connector-curvature="0"
       id="path26"
       style="fill:#ffffff;fill-opacity:1;fill-rule:nonzero;stroke:none"
       d="m 153.578,68.157009 h 8.141 c 0.351,0 0.484,0.09 0.484,1.278 0,3.343 -0.836,5.105 -4.183,5.105 -3.915,0 -4.708,-2.641 -4.708,-6.074 0,-0.176 0.09,-0.309 0.266,-0.309 z m 5.324,-14.035 c -8.582,0 -11.308,4.707 -11.308,12.145 0,7.878 3.344,12.277 10.515,12.277 7.039,0 9.153,-3.828 9.153,-10.211 0,-2.992 -0.133,-3.738 -1.188,-3.738 h -12.41 c -0.219,0 -0.262,-0.09 -0.262,-0.266 0,-4.707 2.243,-5.894 6.336,-5.894 2.242,0 4.84,0.57 6.203,1.011 0.223,0 0.399,-0.043 0.485,-0.218 l 0.308,-3.434 c 0,-0.176 -0.086,-0.309 -0.308,-0.399 -1.715,-0.789 -4.446,-1.273 -7.524,-1.273" /><path
       inkscape:connector-curvature="0"
       id="path28"
       style="fill:#ffffff;fill-opacity:1;fill-rule:nonzero;stroke:none"
       d="m 187.676,54.560009 c -0.262,0 -0.438,0.175 -0.438,0.441 v 14.875 c 0,3.344 -0.75,4.223 -4.269,4.223 -1.321,0 -2.375,-0.086 -3.125,-0.262 -0.309,-0.09 -0.442,-0.176 -0.442,-0.442 v -18.394 c 0,-0.266 -0.175,-0.441 -0.437,-0.441 h -4.887 c -0.262,0 -0.437,0.175 -0.437,0.441 v 22.18 c 0,0.261 0.175,0.394 0.437,0.441 2.379,0.395 6.34,0.922 9.11,0.922 7.746,0 9.816,-1.981 9.816,-8.406 v -15.137 c 0,-0.266 -0.18,-0.441 -0.442,-0.441 h -4.886" /><path
       inkscape:connector-curvature="0"
       id="path30"
       style="fill:#ffffff;fill-opacity:1;fill-rule:nonzero;stroke:none"
       d="m 206.992,54.122009 c -3.519,0 -5.324,1.629 -5.324,4.84 v 14.433 c 0,0.176 -0.09,0.266 -0.266,0.266 h -3.035 c -0.265,0 -0.441,0.176 -0.441,0.438 v 3.566 c 0,0.262 0.176,0.437 0.441,0.437 h 3.035 c 0.176,0 0.266,0.09 0.266,0.266 v 5.5 c 0,0.266 0.176,0.442 0.441,0.442 h 4.883 c 0.266,0 0.442,-0.176 0.442,-0.442 v -5.5 c 0,-0.176 0.086,-0.266 0.261,-0.266 h 3.7 c 0.261,0 0.437,-0.175 0.437,-0.437 v -3.566 c 0,-0.262 -0.176,-0.438 -0.437,-0.438 h -3.7 c -0.175,0 -0.261,-0.09 -0.261,-0.266 v -13.07 c 0,-1.453 0.484,-1.847 1.89,-1.847 h 1.364 c 0.222,0 0.441,-0.09 0.441,-0.442 l -0.133,-2.945 c 0,-0.266 -0.219,-0.531 -0.437,-0.574 -0.969,-0.219 -2.336,-0.395 -3.567,-0.395" /><path
       inkscape:connector-curvature="0"
       id="path32"
       style="fill:#ffffff;fill-opacity:1;fill-rule:nonzero;stroke:none"
       d="m 225.957,74.013009 c -0.703,0 -1.848,-0.09 -2.555,-0.352 -0.261,-0.133 -0.304,-0.266 -0.304,-0.484 v -18.176 c 0,-0.309 -0.176,-0.484 -0.485,-0.441 h -4.843 c -0.262,0 -0.438,0.175 -0.438,0.441 v 22.18 c 0,0.261 0.176,0.394 0.438,0.441 2.203,0.48 5.457,0.922 8.273,0.922 1.453,0 2.379,-0.043 3.566,-0.176 0.219,-0.043 0.262,-0.133 0.262,-0.351 l -0.219,-4.051 c 0,-0.129 -0.086,-0.262 -0.308,-0.219 -1.055,0.176 -2.156,0.266 -3.387,0.266" /><path
       inkscape:connector-curvature="0"
       id="path34"
       style="fill:#ffffff;fill-opacity:1;fill-rule:nonzero;stroke:none"
       d="m 246.238,64.770009 c 0,0.176 -0.086,0.266 -0.261,0.266 h -2.95 c -3.168,0 -4.136,-0.574 -4.136,-3.742 0,-3.125 0.793,-3.477 4.269,-3.477 1.012,0 2.199,0.09 2.774,0.219 0.261,0.09 0.304,0.176 0.304,0.309 z m -10.121,8.715 c -0.262,-0.047 -0.613,-0.047 -0.66,0.219 l -0.305,3.387 c -0.047,0.265 0,0.531 0.262,0.617 1.672,0.484 4.754,0.836 7.703,0.836 5.457,0 8.754,-1.848 8.754,-6.996 v -15.977 c 0,-0.261 -0.086,-0.48 -0.57,-0.66 -1.539,-0.48 -4.664,-0.789 -7.699,-0.789 -7.922,0 -10.301,1.496 -10.301,6.555 0,4.488 1.015,6.515 7.484,7.304 l 5.192,0.661 c 0.175,0.046 0.261,0.089 0.261,0.265 v 1.762 c 0,2.637 -1.23,3.254 -4.664,3.254 -1.582,0 -4.047,-0.219 -5.457,-0.438" /><path
       inkscape:connector-curvature="0"
       id="path36"
       style="fill:#ffffff;fill-opacity:1;fill-rule:nonzero;stroke:none"
       d="m 270.793,64.770009 c 0,0.176 -0.09,0.266 -0.266,0.266 h -2.949 c -3.168,0 -4.137,-0.574 -4.137,-3.742 0,-3.125 0.793,-3.477 4.27,-3.477 1.012,0 2.199,0.09 2.773,0.219 0.262,0.09 0.309,0.176 0.309,0.309 z m -10.121,8.715 c -0.266,-0.047 -0.617,-0.047 -0.66,0.219 l -0.309,3.387 c -0.043,0.265 0,0.531 0.262,0.617 1.672,0.484 4.754,0.836 7.703,0.836 5.457,0 8.758,-1.848 8.758,-6.996 v -15.977 c 0,-0.261 -0.09,-0.48 -0.574,-0.66 -1.54,-0.48 -4.664,-0.789 -7.7,-0.789 -7.922,0 -10.297,1.496 -10.297,6.555 0,4.488 1.012,6.515 7.481,7.304 l 5.191,0.661 c 0.176,0.046 0.266,0.089 0.266,0.265 v 1.762 c 0,2.637 -1.234,3.254 -4.664,3.254 -1.586,0 -4.051,-0.219 -5.457,-0.438" /><path
       inkscape:connector-curvature="0"
       id="path38"
       style="fill:#ffffff;fill-opacity:1;fill-rule:nonzero;stroke:none"
       d="m 289.359,54.122009 c -3.652,0 -5.5,1.273 -5.5,5.367 v 26.934 c 0,0.305 0.176,0.484 0.438,0.484 h 4.887 c 0.261,0 0.437,-0.179 0.437,-0.484 v -26.141 c 0,-1.41 0.574,-1.847 1.852,-1.847 h 1.406 c 0.219,0 0.441,-0.09 0.441,-0.442 l -0.132,-2.902 c 0,-0.266 -0.219,-0.485 -0.442,-0.531 -0.969,-0.262 -2.023,-0.438 -3.387,-0.438" /><path
       inkscape:connector-curvature="0"
       id="path40"
       style="fill:#ffffff;fill-opacity:1;fill-rule:nonzero;stroke:none"
       d="m 317.254,58.872009 c 4.226,0 5.5,0.836 5.5,4.488 0,3.742 -2.199,4.535 -5.192,4.535 h -2.683 c -0.266,0 -0.399,-0.089 -0.399,-0.398 v -8.316 c 0,-0.262 0.09,-0.309 0.309,-0.309 z m 0.484,12.719 c 2.907,0.133 4.489,1.101 4.489,4.711 0,2.816 -1.055,3.957 -4.665,3.957 h -2.773 c -0.219,0 -0.309,-0.129 -0.309,-0.305 v -8.012 c 0,-0.308 0.133,-0.351 0.399,-0.351 z m 0.836,12.894 c 5.899,0 9.594,-1.804 9.594,-7.48 0,-4.094 -1.672,-5.238 -3.387,-6.25 -0.441,-0.266 -0.531,-0.352 -0.531,-0.57 0,-0.176 0.047,-0.266 0.266,-0.356 2.199,-0.879 4.269,-2.551 4.269,-7.305 0,-5.984 -4.445,-7.964 -8.847,-7.964 h -10.825 c -0.265,0 -0.441,0.175 -0.441,0.441 v 29.043 c 0,0.266 0.176,0.441 0.441,0.441 h 9.461" /><path
       inkscape:connector-curvature="0"
       id="path42"
       style="fill:#ffffff;fill-opacity:1;fill-rule:nonzero;stroke:none"
       d="m 340.75,78.102009 c 0.266,0 0.441,-0.175 0.441,-0.437 v -14.609 c 0,-3.348 0.879,-4.36 4.446,-4.36 1.097,0 2.156,0.09 2.992,0.266 0.262,0.086 0.394,0.176 0.394,0.441 v 18.262 c 0,0.262 0.176,0.437 0.442,0.437 h 4.84 c 0.261,0 0.441,-0.175 0.441,-0.437 v -22.18 c 0,-0.265 -0.18,-0.394 -0.441,-0.441 -2.375,-0.438 -6.032,-0.922 -8.758,-0.922 -7.746,0 -10.121,2.109 -10.121,8.535 v 15.008 c 0,0.262 0.176,0.437 0.441,0.437 h 4.883" /><path
       inkscape:connector-curvature="0"
       id="path44"
       style="fill:#ffffff;fill-opacity:1;fill-rule:nonzero;stroke:none"
       d="m 370.98,74.013009 c -0.707,0 -1.851,-0.09 -2.554,-0.352 -0.262,-0.133 -0.309,-0.266 -0.309,-0.484 v -18.176 c 0,-0.309 -0.176,-0.484 -0.484,-0.441 h -4.84 c -0.262,0 -0.441,0.175 -0.441,0.441 v 22.18 c 0,0.261 0.179,0.394 0.441,0.441 2.199,0.48 5.457,0.922 8.273,0.922 1.454,0 2.375,-0.043 3.567,-0.176 0.219,-0.043 0.262,-0.133 0.262,-0.351 l -0.219,-4.051 c 0,-0.129 -0.09,-0.262 -0.309,-0.219 -1.055,0.176 -2.156,0.266 -3.387,0.266" /><path
       inkscape:connector-curvature="0"
       id="path46"
       style="fill:#ffffff;fill-opacity:1;fill-rule:nonzero;stroke:none"
       d="m 384.176,68.157009 h 8.14 c 0.356,0 0.485,0.09 0.485,1.278 0,3.343 -0.836,5.105 -4.18,5.105 -3.914,0 -4.707,-2.641 -4.707,-6.074 0,-0.176 0.086,-0.309 0.262,-0.309 z m 5.324,-14.035 c -8.578,0 -11.309,4.707 -11.309,12.145 0,7.878 3.344,12.277 10.52,12.277 7.039,0 9.152,-3.828 9.152,-10.211 0,-2.992 -0.133,-3.738 -1.187,-3.738 h -12.41 c -0.219,0 -0.266,-0.09 -0.266,-0.266 0,-4.707 2.246,-5.894 6.34,-5.894 2.242,0 4.84,0.57 6.203,1.011 0.219,0 0.395,-0.043 0.484,-0.218 l 0.309,-3.434 c 0,-0.176 -0.09,-0.309 -0.309,-0.399 -1.715,-0.789 -4.445,-1.273 -7.527,-1.273" /><path
       inkscape:connector-curvature="0"
       id="path48"
       style="fill:#ffffff;fill-opacity:1;fill-rule:nonzero;stroke:none"
       d="m 416.078,64.770009 c 0,0.176 -0.09,0.266 -0.266,0.266 h -2.945 c -3.172,0 -4.137,-0.574 -4.137,-3.742 0,-3.125 0.79,-3.477 4.266,-3.477 1.012,0 2.203,0.09 2.774,0.219 0.265,0.09 0.308,0.176 0.308,0.309 z m -10.121,8.715 c -0.266,-0.047 -0.617,-0.047 -0.66,0.219 l -0.309,3.387 c -0.043,0.265 0,0.531 0.266,0.617 1.672,0.484 4.75,0.836 7.699,0.836 5.457,0 8.758,-1.848 8.758,-6.996 v -15.977 c 0,-0.261 -0.09,-0.48 -0.574,-0.66 -1.539,-0.48 -4.664,-0.789 -7.699,-0.789 -7.922,0 -10.297,1.496 -10.297,6.555 0,4.488 1.011,6.515 7.48,7.304 l 5.191,0.661 c 0.176,0.046 0.266,0.089 0.266,0.265 v 1.762 c 0,2.637 -1.23,3.254 -4.664,3.254 -1.586,0 -4.051,-0.219 -5.457,-0.438" /><path
       inkscape:connector-curvature="0"
       id="path50"
       style="fill:#ffffff;fill-opacity:1;fill-rule:nonzero;stroke:none"
       d="m 433.898,78.102009 c 0.262,0 0.438,-0.175 0.438,-0.437 v -14.609 c 0,-3.348 0.883,-4.36 4.445,-4.36 1.102,0 2.157,0.09 2.992,0.266 0.266,0.086 0.395,0.176 0.395,0.441 v 18.262 c 0,0.262 0.18,0.437 0.441,0.437 h 4.84 c 0.266,0 0.442,-0.175 0.442,-0.437 v -22.18 c 0,-0.265 -0.176,-0.394 -0.442,-0.441 -2.375,-0.438 -6.027,-0.922 -8.754,-0.922 -7.746,0 -10.125,2.109 -10.125,8.535 v 15.008 c 0,0.262 0.176,0.437 0.442,0.437 h 4.886" /><path
       inkscape:connector-curvature="0"
       id="path52"
       style="fill:#ffffff;fill-opacity:1;fill-rule:nonzero;stroke:none"
       d="m 138.617,0.560009 h -7.875 c -0.222,0 -0.398,0.222 -0.441,0.351 -1.762,5.547 -5.5,19.629 -6.117,22.797 0,0.266 0.089,0.394 0.398,0.394 h 5.277 c 0.266,0 0.356,-0.175 0.399,-0.394 1.054,-5.59 2.859,-13.688 4.004,-18.129 0.043,-0.223 0.176,-0.266 0.57,-0.266 0.441,0 0.574,0.043 0.617,0.266 1.235,4.441 2.992,12.539 4.051,18.129 0.043,0.266 0.262,0.394 0.57,0.394 h 4.84 c 0.266,0 0.352,-0.218 0.352,-0.437 -0.571,-3.125 -4.399,-17.426 -6.117,-22.754 -0.086,-0.262 -0.176,-0.351 -0.528,-0.351" /><path
       inkscape:connector-curvature="0"
       id="path54"
       style="fill:#ffffff;fill-opacity:1;fill-rule:nonzero;stroke:none"
       d="m 155.469,5.489009 c 0.574,-0.66 1.32,-0.969 3.211,-0.969 2.027,0 2.773,0.309 3.3,0.969 0.883,1.012 1.321,3.871 1.321,7.086 0,3.258 -0.438,5.676 -1.321,6.735 -0.527,0.66 -1.273,0.921 -3.21,0.921 -1.981,0 -2.727,-0.261 -3.301,-0.921 -0.879,-1.059 -1.364,-3.477 -1.364,-6.735 0,-3.215 0.485,-6.074 1.364,-7.086 z m 10.871,-2.992 c -1.629,-1.672 -3.961,-2.375 -7.66,-2.375 -3.696,0 -5.895,0.703 -7.481,2.375 -1.715,1.848 -2.945,5.633 -2.945,10.035 0,4.442 1.187,7.918 2.945,9.723 1.586,1.719 3.961,2.289 7.571,2.289 3.742,0 5.941,-0.617 7.57,-2.289 1.672,-1.848 2.816,-5.281 2.816,-9.723 0,-4.402 -1.144,-8.187 -2.816,-10.035" /><path
       inkscape:connector-curvature="0"
       id="path56"
       style="fill:#ffffff;fill-opacity:1;fill-rule:nonzero;stroke:none"
       d="m 180.855,5.489009 c 0.575,-0.66 1.321,-0.969 3.215,-0.969 2.024,0 2.77,0.309 3.301,0.969 0.879,1.012 1.32,3.871 1.32,7.086 0,3.258 -0.441,5.676 -1.32,6.735 -0.531,0.66 -1.277,0.921 -3.215,0.921 -1.98,0 -2.726,-0.261 -3.301,-0.921 -0.878,-1.059 -1.363,-3.477 -1.363,-6.735 0,-3.215 0.485,-6.074 1.363,-7.086 z m 10.872,-2.992 c -1.629,-1.672 -3.961,-2.375 -7.657,-2.375 -3.699,0 -5.898,0.703 -7.48,2.375 -1.719,1.848 -2.949,5.633 -2.949,10.035 0,4.442 1.187,7.918 2.949,9.723 1.582,1.719 3.957,2.289 7.566,2.289 3.742,0 5.942,-0.617 7.571,-2.289 1.671,-1.848 2.816,-5.281 2.816,-9.723 0,-4.402 -1.145,-8.187 -2.816,-10.035" /><path
       inkscape:connector-curvature="0"
       id="path58"
       style="fill:#ffffff;fill-opacity:1;fill-rule:nonzero;stroke:none"
       d="m 209.105,20.013009 c -0.707,0 -1.847,-0.09 -2.554,-0.352 -0.262,-0.133 -0.309,-0.266 -0.309,-0.484 v -18.176 c 0,-0.309 -0.176,-0.484 -0.48,-0.441 h -4.844 c -0.262,0 -0.438,0.175 -0.438,0.441 v 22.18 c 0,0.261 0.176,0.394 0.438,0.441 2.203,0.48 5.457,0.922 8.273,0.922 1.454,0 2.379,-0.043 3.567,-0.176 0.219,-0.043 0.262,-0.133 0.262,-0.351 l -0.219,-4.047 c 0,-0.133 -0.086,-0.266 -0.309,-0.223 -1.054,0.176 -2.156,0.266 -3.387,0.266" /><path
       inkscape:connector-curvature="0"
       id="path60"
       style="fill:#ffffff;fill-opacity:1;fill-rule:nonzero;stroke:none"
       d="m 241.18,19.485009 c 0,0.219 -0.086,0.528 -0.352,0.571 -0.617,0.132 -1.582,0.218 -2.551,0.218 -4.004,0 -5.324,-1.32 -5.324,-7.875 0,-6.468 0.746,-8.097 5.41,-8.097 0.703,0 1.805,0.043 2.422,0.218 0.309,0.09 0.395,0.223 0.395,0.442 z m -14.215,-7 c 0,8.055 2.992,12.016 10.168,12.016 1.496,0 3.168,-0.266 3.738,-0.266 0.266,0 0.309,0.176 0.309,0.399 v 7.832 c 0,0.265 0.175,0.441 0.441,0.441 h 4.883 c 0.266,0 0.441,-0.176 0.441,-0.441 v -30.848 c 0,-0.223 -0.043,-0.398 -0.441,-0.574 -1.449,-0.613 -5.367,-0.922 -8.184,-0.922 -9.152,0 -11.355,3.344 -11.355,12.363" /><path
       inkscape:connector-curvature="0"
       id="path62"
       style="fill:#ffffff;fill-opacity:1;fill-rule:nonzero;stroke:none"
       d="m 258.469,14.157009 h 8.144 c 0.352,0 0.481,0.09 0.481,1.278 0,3.343 -0.836,5.105 -4.18,5.105 -3.914,0 -4.707,-2.641 -4.707,-6.074 0,-0.176 0.086,-0.309 0.262,-0.309 z m 5.328,-14.035 c -8.582,0 -11.313,4.707 -11.313,12.145 0,7.878 3.344,12.277 10.52,12.277 7.039,0 9.152,-3.828 9.152,-10.207 0,-2.996 -0.133,-3.742 -1.187,-3.742 h -12.41 c -0.219,0 -0.266,-0.09 -0.266,-0.266 0,-4.707 2.246,-5.894 6.34,-5.894 2.242,0 4.84,0.57 6.203,1.011 0.219,0 0.394,-0.043 0.484,-0.218 l 0.309,-3.434 c 0,-0.176 -0.09,-0.309 -0.309,-0.399 -1.715,-0.789 -4.445,-1.273 -7.523,-1.273" /><path
       inkscape:connector-curvature="0"
       id="path64"
       style="fill:#ffffff;fill-opacity:1;fill-rule:nonzero;stroke:none"
       d="m 298.203,25.954009 c -2.641,0 -3.566,-0.883 -3.566,-3.082 0,-1.762 0.574,-2.551 5.195,-5.809 3.695,-2.597 5.633,-4.531 5.633,-8.843 0,-5.68 -2.992,-7.965 -8.539,-7.965 -3.477,0 -6.559,0.394 -8.274,0.789 -0.261,0.047 -0.394,0.176 -0.394,0.351 l 0.308,3.961 c 0,0.176 0.086,0.309 0.305,0.309 2.203,-0.395 4.492,-0.617 6.777,-0.617 2.598,0 3.7,0.75 3.7,3.172 0,1.625 -0.176,2.418 -6.207,6.996 -3.739,2.816 -4.532,4.84 -4.532,7.922 0,5.894 3.258,7.566 9.637,7.566 2.508,0 5.723,-0.437 6.777,-0.879 0.176,-0.09 0.219,-0.265 0.219,-0.394 l -0.262,-3.829 c 0,-0.132 -0.089,-0.265 -0.265,-0.265 -1.586,0.394 -4.578,0.617 -6.512,0.617" /><path
       inkscape:connector-curvature="0"
       id="path66"
       style="fill:#ffffff;fill-opacity:1;fill-rule:nonzero;stroke:none"
       d="m 318.793,0.122009 c -3.52,0 -5.324,1.629 -5.324,4.84 v 14.433 c 0,0.176 -0.09,0.266 -0.266,0.266 h -3.035 c -0.266,0 -0.441,0.176 -0.441,0.438 v 3.566 c 0,0.262 0.175,0.437 0.441,0.437 h 3.035 c 0.176,0 0.266,0.09 0.266,0.266 v 5.5 c 0,0.266 0.176,0.442 0.441,0.442 h 4.883 c 0.266,0 0.441,-0.176 0.441,-0.442 v -5.5 c 0,-0.176 0.086,-0.266 0.262,-0.266 h 3.699 c 0.262,0 0.438,-0.175 0.438,-0.437 v -3.566 c 0,-0.262 -0.176,-0.438 -0.438,-0.438 h -3.699 c -0.176,0 -0.262,-0.09 -0.262,-0.266 v -13.07 c 0,-1.453 0.485,-1.847 1.891,-1.847 h 1.363 c 0.223,0 0.442,-0.09 0.442,-0.442 l -0.133,-2.945 c 0,-0.266 -0.219,-0.531 -0.438,-0.574 -0.968,-0.219 -2.332,-0.395 -3.566,-0.395" /><path
       inkscape:connector-curvature="0"
       id="path68"
       style="fill:#ffffff;fill-opacity:1;fill-rule:nonzero;stroke:none"
       d="m 340.531,10.770009 c 0,0.176 -0.09,0.266 -0.265,0.266 h -2.95 c -3.168,0 -4.136,-0.574 -4.136,-3.742 0,-3.125 0.793,-3.477 4.269,-3.477 1.012,0 2.199,0.09 2.774,0.219 0.261,0.09 0.308,0.176 0.308,0.309 z m -10.121,8.715 c -0.265,-0.047 -0.617,-0.047 -0.66,0.219 l -0.309,3.387 c -0.046,0.265 0,0.531 0.262,0.617 1.672,0.484 4.754,0.836 7.703,0.836 5.457,0 8.758,-1.848 8.758,-6.996 v -15.977 c 0,-0.261 -0.09,-0.48 -0.574,-0.66 -1.539,-0.48 -4.664,-0.789 -7.699,-0.789 -7.922,0 -10.297,1.496 -10.297,6.555 0,4.488 1.011,6.515 7.48,7.304 l 5.192,0.661 c 0.175,0.046 0.265,0.089 0.265,0.265 v 1.762 c 0,2.641 -1.234,3.254 -4.664,3.254 -1.586,0 -4.051,-0.219 -5.457,-0.438" /><path
       inkscape:connector-curvature="0"
       id="path70"
       style="fill:#ffffff;fill-opacity:1;fill-rule:nonzero;stroke:none"
       d="m 360.328,0.122009 c -3.519,0 -5.324,1.629 -5.324,4.84 v 14.433 c 0,0.176 -0.09,0.266 -0.266,0.266 h -3.035 c -0.265,0 -0.441,0.176 -0.441,0.438 v 3.566 c 0,0.262 0.176,0.437 0.441,0.437 h 3.035 c 0.176,0 0.266,0.09 0.266,0.266 v 5.5 c 0,0.266 0.176,0.442 0.441,0.442 h 4.883 c 0.266,0 0.442,-0.176 0.442,-0.442 v -5.5 c 0,-0.176 0.085,-0.266 0.261,-0.266 h 3.699 c 0.262,0 0.438,-0.175 0.438,-0.437 v -3.566 c 0,-0.262 -0.176,-0.438 -0.438,-0.438 h -3.699 c -0.176,0 -0.261,-0.09 -0.261,-0.266 v -13.07 c 0,-1.453 0.484,-1.847 1.89,-1.847 h 1.363 c 0.223,0 0.442,-0.09 0.442,-0.442 l -0.133,-2.945 c 0,-0.266 -0.219,-0.531 -0.437,-0.574 -0.969,-0.219 -2.333,-0.395 -3.567,-0.395" /><path
       inkscape:connector-curvature="0"
       id="path72"
       style="fill:#ffffff;fill-opacity:1;fill-rule:nonzero;stroke:none"
       d="m 371.723,0.560009 c -0.262,0 -0.438,0.175 -0.438,0.441 v 22.664 c 0,0.262 0.176,0.437 0.438,0.437 h 4.886 c 0.262,0 0.438,-0.175 0.438,-0.437 v -22.664 c 0,-0.266 -0.176,-0.441 -0.438,-0.441 z m -0.133,27.46 c -0.262,0 -0.438,0.176 -0.438,0.442 v 4.355 c 0,0.266 0.176,0.442 0.438,0.442 h 5.148 c 0.266,0 0.442,-0.176 0.442,-0.442 v -4.355 c 0,-0.266 -0.176,-0.442 -0.442,-0.442 h -5.148" /><path
       inkscape:connector-curvature="0"
       id="path74"
       style="fill:#ffffff;fill-opacity:1;fill-rule:nonzero;stroke:none"
       d="m 383.426,0.958009 0.222,3.828 c 0,0.133 0.176,0.219 0.352,0.176 1.449,-0.309 3.562,-0.484 5.016,-0.484 3.125,0 3.609,0.308 3.609,2.507 0,1.321 -0.75,1.981 -4.227,4.356 -3.562,2.379 -4.796,3.609 -4.796,6.558 0,4.973 2.64,6.645 8.363,6.645 2.113,0 4.531,-0.219 5.894,-0.484 0.133,-0.043 0.223,-0.086 0.223,-0.309 l -0.266,-3.914 c 0,-0.09 -0.132,-0.223 -0.308,-0.176 -1.32,0.219 -3.211,0.438 -4.488,0.438 -2.774,0 -3.696,-0.176 -3.696,-2.067 0,-1.539 0.746,-2.023 4.223,-4.18 3.875,-2.464 4.93,-4.093 4.93,-6.824 0,-5.633 -3.082,-6.906 -8.536,-6.906 -2.421,0 -4.843,0.219 -6.25,0.484 -0.132,0.043 -0.265,0.129 -0.265,0.352" /><path
       inkscape:connector-curvature="0"
       id="path76"
       style="fill:#ffffff;fill-opacity:1;fill-rule:nonzero;stroke:none"
       d="m 411.281,0.122009 c -3.523,0 -5.328,1.629 -5.328,4.84 v 14.433 c 0,0.176 -0.086,0.266 -0.262,0.266 h -3.035 c -0.265,0 -0.441,0.176 -0.441,0.438 v 3.566 c 0,0.262 0.176,0.437 0.441,0.437 h 3.035 c 0.176,0 0.262,0.09 0.262,0.266 v 5.5 c 0,0.266 0.18,0.442 0.442,0.442 h 4.886 c 0.262,0 0.438,-0.176 0.438,-0.442 v -5.5 c 0,-0.176 0.09,-0.266 0.265,-0.266 h 3.696 c 0.265,0 0.441,-0.175 0.441,-0.437 v -3.566 c 0,-0.262 -0.176,-0.438 -0.441,-0.438 h -3.696 c -0.175,0 -0.265,-0.09 -0.265,-0.266 v -13.07 c 0,-1.453 0.484,-1.847 1.894,-1.847 h 1.364 c 0.218,0 0.441,-0.09 0.441,-0.442 l -0.133,-2.945 c 0,-0.266 -0.223,-0.531 -0.441,-0.574 -0.969,-0.219 -2.332,-0.395 -3.563,-0.395" /><path
       inkscape:connector-curvature="0"
       id="path78"
       style="fill:#ffffff;fill-opacity:1;fill-rule:nonzero;stroke:none"
       d="m 422.676,0.560009 c -0.266,0 -0.442,0.175 -0.442,0.441 v 22.664 c 0,0.262 0.176,0.437 0.442,0.437 h 4.883 c 0.265,0 0.441,-0.175 0.441,-0.437 l 0,-22.664 c 0,-0.266 -0.176,-0.441 -0.441,-0.441 z m -0.133,27.46 c -0.266,0 -0.441,0.176 -0.441,0.442 v 4.355 c 0,0.266 0.175,0.442 0.441,0.442 h 5.148 c 0.266,0 0.442,-0.176 0.442,-0.442 v -4.355 c 0,-0.266 -0.176,-0.442 -0.442,-0.442 h -5.148" /><path
       inkscape:connector-curvature="0"
       id="path80"
       style="fill:#ffffff;fill-opacity:1;fill-rule:nonzero;stroke:none"
       d="m 440.98,14.157009 h 8.141 c 0.352,0 0.484,0.09 0.484,1.278 0,3.343 -0.835,5.105 -4.179,5.105 -3.918,0 -4.711,-2.641 -4.711,-6.074 0,-0.176 0.09,-0.309 0.265,-0.309 z m 5.325,-14.035 c -8.582,0 -11.309,4.707 -11.309,12.145 0,7.878 3.344,12.277 10.516,12.277 7.043,0 9.152,-3.828 9.152,-10.207 0,-2.996 -0.129,-3.742 -1.187,-3.742 h -12.411 c -0.218,0 -0.261,-0.09 -0.261,-0.266 0,-4.707 2.242,-5.894 6.336,-5.894 2.246,0 4.839,0.57 6.203,1.011 0.222,0 0.398,-0.043 0.484,-0.218 l 0.309,-3.434 c 0,-0.176 -0.086,-0.309 -0.309,-0.399 -1.715,-0.789 -4.441,-1.273 -7.523,-1.273" /><path
       inkscape:connector-curvature="0"
       id="path82"
       style="fill:#ffffff;fill-opacity:1;fill-rule:nonzero;stroke:none"
       d="m 466.809,15.743009 c 0,-0.265 0.261,-0.394 0.789,-0.394 0.441,0 0.75,0.043 0.882,0.175 1.805,2.375 4.399,6.246 5.633,8.184 0.176,0.266 0.305,0.394 0.66,0.394 h 5.852 c 0.395,0 0.66,-0.128 0.527,-0.394 -0.703,-1.012 -5.148,-6.688 -7.789,-9.813 -0.133,-0.132 -0.261,-0.351 -0.261,-0.527 0,-0.176 0.128,-0.351 0.351,-0.617 1.891,-2.598 6.996,-10.164 7.965,-11.707 0.133,-0.219 0.133,-0.484 -0.484,-0.484 h -5.59 c -0.309,0 -0.442,0.046 -0.617,0.351 -1.45,2.555 -4.622,7.527 -6.118,9.902 -0.129,0.223 -0.613,0.442 -1.097,0.442 -0.617,0 -0.703,-0.133 -0.703,-0.395 v -9.859 c 0,-0.266 -0.18,-0.441 -0.442,-0.441 h -4.84 c -0.265,0 -0.441,0.175 -0.441,0.441 v 31.465 c 0,0.265 0.176,0.441 0.441,0.441 h 4.84 c 0.262,0 0.442,-0.176 0.442,-0.441 v -16.723" /><path
       inkscape:connector-curvature="0"
       id="path84"
       style="fill:#42a5cf;fill-opacity:1;fill-rule:nonzero;stroke:none"
       d="M 41.871,123.60601 H 5 c -2.762,0 -5,-2.238 -5,-5 V 77.981009 h 41.871 v 18.887 h -23 v 7.867001 h 23 z m -5.5,-5.5 v -7.871 h -23 V 91.368009 h 23 v -7.887 H 5.5 v 34.625001 h 30.871" /><path
       inkscape:connector-curvature="0"
       id="path86"
       style="fill:#42a5cf;fill-opacity:1;fill-rule:nonzero;stroke:none"
       d="m 67.852,96.895009 v 7.872001 h 7.914 V 96.895009 Z M 62.871,146.29001 H 49.012 V 77.989009 h 45.687 v 40.621001 c 0,2.762 -2.238,5 -5,5 H 67.871 v 17.422 c 0,2.762 -2.238,5.258 -5,5.258 z M 62.352,91.395009 H 81.266 V 110.26701 H 62.352 V 91.395009 m 0.019,49.395001 v -22.68 H 89.199 V 83.489009 H 54.512 v 57.301001 h 7.859" /><path
       inkscape:connector-curvature="0"
       id="path88"
       style="fill:#42a5cf;fill-opacity:1;fill-rule:nonzero;stroke:none"
       d="M 94.633,70.868009 H 0.008 l 0.015,-44.859 75.793,-0.016 v -7.105 H 0.023 v -13.887 c 0,-2.762 2.239,-5 5,-5 h 84.645 c 2.762,0 5,2.238 5,5 v 39.887 H 18.922 v 7 h 75.711 z m -5.5,-5.5 v -7.98 H 13.422 v -18 h 75.746 v -33.887 H 5.523 v 7.887 h 75.793 v 18.105 h -5.5 l -70.296,0.016 -0.008,33.859 h 83.621" /></g></svg>